<svg width="1073" height="650" viewBox="0 0 1073 650" fill="none" xmlns="http://www.w3.org/2000/svg">
<path d="M15 453.5C95.577 396.897 229 295.723 327.5 234.5C527 110.5 752.262 -19.9673 780.5 24.4999C796.28 49.3492 344 389.5 146.5 561C123.995 580.542 68.8 627.3 86 634.5C120 638.1 309.5 497.629 335 478C396 431.043 544.3 318.3 553.5 329.5C562.7 340.7 491.833 419.5 468.5 453.5C461.637 463.5 485.2 488.1 540 468.5C608.5 444 741 386.5 755.5 405C767.1 419.8 739.667 453.5 724.5 468.5C715.333 479 708.7 502.8 755.5 514C814 528 1030.5 498 1058 514" stroke="white" stroke-width="30" stroke-linecap="round"/>
</svg>
